# xmcd
#
# Track frame offsets:
#	150
#	9846
#	23003
#	34373
#	48520
#	63020
#	80716
#	98923
#	111528
#	128906
#	149938
#	162371
#	174789
#	186354
#	204394
#	227017
#	236544
#	248781
#	267252
#	279327
#
# Disc length: 3886 seconds
# Revision: 0
# Processed by: cddbd v1.5.2PL0 Copyright (c) Steve Scherf et al.
# Submitted via: dBpowerAMP V12.0
#
DISCID=170f2c14
DTITLE=Various Artist - The Patuxent Banjo Project, Disc 1 of 2
DYEAR=2014
DGENRE=Country
TTITLE0=Mike Munford - Hot Burrito Breakdown
TTITLE1=Roni Stoneman - Going Home
TTITLE2=Tom Adams - Sugarfoot Rag
TTITLE3=Victor Furtado - The Ghost on Hippie Hill
TTITLE4=Don Bryant - Paddy on the Turnpike
TTITLE5=Randy Barrett - Things in Life
TTITLE6=Murphy Henry - Hazel Creek
TTITLE7=Mark Delaney - Bird Bath
TTITLE8=Bill Runkle - Marching Through Glenville
TTITLE9=Ira Gitlin - Allegretto con Melanzane
TTITLE10=Kevin Church - Farewell Blues
TTITLE11=Mark Schatz - Ninety Degrees
TTITLE12=Chris Warner - Lickity Split
TTITLE13=Tim Kruzic - Dazed
TTITLE14=Paul Brown - Cumberland Gap
TTITLE15=Bill Blackburn - Goldfield
TTITLE16=Eddie Adcock - Cedar City Blues
TTITLE17=Tom Neal - Banjoland 
TTITLE18=John Brunschwyler and Brennen Ernst - Scramble
TTITLE19=Dick Smith - Dear Old Dixie
EXTD=
EXTT0=
EXTT1=
EXTT2=
EXTT3=
EXTT4=
EXTT5=
EXTT6=
EXTT7=
EXTT8=
EXTT9=
EXTT10=
EXTT11=
EXTT12=
EXTT13=
EXTT14=
EXTT15=
EXTT16=
EXTT17=
EXTT18=
EXTT19=
PLAYORDER=
